<svg width="148" height="155" viewBox="0 0 148 155" fill="none" xmlns="http://www.w3.org/2000/svg">
<path d="M3 103.5V131H17H71C88 131 89 103.5 71 103.5H17H3Z" fill="#C80000"/>
<path d="M145.5 31.5V142C145.5 147.523 141.023 152 135.5 152H27C21.4772 152 17 147.523 17 142V131M145.5 31.5L116.5 3M145.5 31.5C145.5 31.5 127 34 121.5 28C116 22 116.5 3 116.5 3M116.5 3H27C21.4772 3 17 7.47715 17 13V103.5M3 103.5V131M3 103.5C3 103.5 8.72594 103.5 17 103.5M3 103.5H17M3 131C3 131 8.73512 131 17 131M3 131H17M71 131C88 131 89 103.5 71 103.5M71 131C59.7008 131 33.3813 131 17 131M71 131H17M71 103.5C59.0913 103.5 33.176 103.5 17 103.5M71 103.5H17" stroke="#C80000" stroke-width="5"/>
<path d="M35.2642 125V110.455H41.0028C42.1061 110.455 43.0459 110.665 43.8224 111.087C44.599 111.503 45.1908 112.083 45.598 112.827C46.0099 113.565 46.2159 114.418 46.2159 115.384C46.2159 116.349 46.0076 117.202 45.5909 117.94C45.1742 118.679 44.5705 119.254 43.7798 119.666C42.9938 120.078 42.0421 120.284 40.9247 120.284H37.267V117.82H40.4276C41.0194 117.82 41.5071 117.718 41.8906 117.514C42.2789 117.306 42.5677 117.019 42.7571 116.655C42.9512 116.286 43.0483 115.862 43.0483 115.384C43.0483 114.901 42.9512 114.479 42.7571 114.119C42.5677 113.755 42.2789 113.473 41.8906 113.274C41.5024 113.071 41.0099 112.969 40.4134 112.969H38.3395V125H35.2642ZM53.3697 125H48.2134V110.455H53.4123C54.8754 110.455 56.1348 110.746 57.1907 111.328C58.2466 111.906 59.0586 112.737 59.6268 113.821C60.1997 114.905 60.4862 116.203 60.4862 117.713C60.4862 119.228 60.1997 120.53 59.6268 121.619C59.0586 122.708 58.2418 123.544 57.1765 124.126C56.1159 124.709 54.8469 125 53.3697 125ZM51.2887 122.365H53.2418C54.1509 122.365 54.9156 122.204 55.5359 121.882C56.1609 121.555 56.6296 121.051 56.9421 120.369C57.2594 119.683 57.418 118.797 57.418 117.713C57.418 116.638 57.2594 115.76 56.9421 115.078C56.6296 114.396 56.1632 113.894 55.543 113.572C54.9227 113.25 54.158 113.089 53.2489 113.089H51.2887V122.365ZM62.7642 125V110.455H72.3949V112.99H65.8395V116.456H71.7557V118.991H65.8395V125H62.7642Z" fill="white"/>
</svg>
